<svg width="50" height="50" viewBox="0 0 50 50" fill="none" xmlns="http://www.w3.org/2000/svg">
<g clip-path="url(#clip0_1_23)">
<path d="M1.55499 33.6958C5.08731 43.2157 14.2509 50.0001 25 50.0001C35.7491 50.0001 44.9127 43.2157 48.445 33.6958L25 31.5219L1.55499 33.6958Z" fill="#FFDA44"/>
<path d="M25 0.00012207C14.2509 0.00012207 5.08731 6.78449 1.55499 16.3045L25 18.4783L48.445 16.3044C44.9127 6.78449 35.7491 0.00012207 25 0.00012207Z" fill="black"/>
<path d="M1.55498 16.3045C0.550098 19.0128 0 21.9421 0 25.0001C0 28.0581 0.550098 30.9874 1.55498 33.6957H48.4451C49.45 30.9874 50 28.0581 50 25.0001C50 21.9421 49.45 19.0128 48.445 16.3045H1.55498Z" fill="#D80027"/>
</g>
<defs>
<clipPath id="clip0_1_23">
<rect width="50" height="50" fill="white"/>
</clipPath>
</defs>
</svg>
