<svg width="51" height="50" viewBox="0 0 51 50" fill="none" xmlns="http://www.w3.org/2000/svg">
<g clip-path="url(#clip0_1_156)">
<path d="M25.0492 49.9854C38.8524 49.9854 50.042 38.7958 50.042 24.9927C50.042 11.1895 38.8524 -0.00012207 25.0492 -0.00012207C11.2461 -0.00012207 0.0564575 11.1895 0.0564575 24.9927C0.0564575 38.7958 11.2461 49.9854 25.0492 49.9854Z" fill="#FFDA44"/>
<path d="M19.6161 21.7328H49.8305C48.233 9.47001 37.7474 -0.00012207 25.0492 -0.00012207C23.1831 -0.00012207 21.3654 0.206166 19.616 0.593945V21.7328H19.6161Z" fill="#0052B4"/>
<path d="M13.0961 21.7326V3.03876C6.23347 6.78318 1.32073 13.6514 0.268005 21.7327H13.0961V21.7326Z" fill="#0052B4"/>
<path d="M13.096 28.2525H0.268005C1.32073 36.3338 6.23347 43.2021 13.0961 46.9464L13.096 28.2525Z" fill="#0052B4"/>
<path d="M19.616 28.2526V49.3913C21.3654 49.7791 23.1831 49.9854 25.0492 49.9854C37.7474 49.9854 48.233 40.5153 49.8305 28.2525H19.616V28.2526Z" fill="#0052B4"/>
</g>
<defs>
<clipPath id="clip0_1_156">
<rect width="50.0976" height="50" fill="white"/>
</clipPath>
</defs>
</svg>
