<svg width="50" height="50" viewBox="0 0 50 50" fill="none" xmlns="http://www.w3.org/2000/svg">
<g clip-path="url(#clip0_1_2)">
<path d="M25 50C38.8071 50 50 38.8071 50 25C50 11.1929 38.8071 0 25 0C11.1929 0 0 11.1929 0 25C0 38.8071 11.1929 50 25 50Z" fill="#6DA544"/>
<path d="M14.1305 29.8912C14.1305 31.6921 15.5905 33.152 17.3913 33.152H27.1739C27.1739 34.6528 28.3905 35.8694 29.8913 35.8694H33.1522C34.6529 35.8694 35.8695 34.6528 35.8695 33.152V29.8912H14.1305Z" fill="#F0F0F0"/>
<path d="M36.1413 14.1305V21.7392C36.1413 22.9379 35.1661 23.9131 33.9673 23.9131V27.1739C36.9641 27.1739 39.4021 24.7359 39.4021 21.7392V14.1305H36.1413Z" fill="#F0F0F0"/>
<path d="M12.7718 21.7392C12.7718 22.9379 11.7966 23.9131 10.5978 23.9131V27.1739C13.5946 27.1739 16.0326 24.7359 16.0326 21.7392V14.1305H12.7718V21.7392Z" fill="#F0F0F0"/>
<path d="M31.25 14.1305H34.5108V21.7392H31.25V14.1305Z" fill="#F0F0F0"/>
<path d="M26.3588 18.4782C26.3588 18.7779 26.1149 19.0217 25.8153 19.0217C25.5157 19.0217 25.2719 18.7778 25.2719 18.4782V14.1304H22.011V18.4782C22.011 18.7779 21.7672 19.0217 21.4675 19.0217C21.1679 19.0217 20.9241 18.7778 20.9241 18.4782V14.1304H17.6631V18.4782C17.6631 20.576 19.3698 22.2826 21.4675 22.2826C22.2755 22.2826 23.0247 22.0287 23.6415 21.5975C24.2582 22.0286 25.0075 22.2826 25.8154 22.2826C25.9781 22.2826 26.1381 22.2712 26.2954 22.2512C26.0643 23.2032 25.2069 23.913 24.1849 23.913V27.1738C27.1817 27.1738 29.6197 24.7357 29.6197 21.7391V18.4782V14.1304H26.3589V18.4782H26.3588Z" fill="#F0F0F0"/>
<path d="M17.6631 23.9131H22.5544V27.174H17.6631V23.9131Z" fill="#F0F0F0"/>
</g>
<defs>
<clipPath id="clip0_1_2">
<rect width="50" height="50" fill="white"/>
</clipPath>
</defs>
</svg>
