<svg width="50" height="50" viewBox="0 0 50 50" fill="none" xmlns="http://www.w3.org/2000/svg">
<g clip-path="url(#clip0_1_169)">
<path d="M24.9513 49.9592C38.7315 49.9592 49.9025 38.7881 49.9025 25.0079C49.9025 11.2277 38.7315 0.0566406 24.9513 0.0566406C11.1711 0.0566406 0 11.2277 0 25.0079C0 38.7881 11.1711 49.9592 24.9513 49.9592Z" fill="#D80027"/>
<path d="M23.9297 20.4451L25.9769 23.2663L29.2924 22.1912L27.2419 25.0099L29.2889 27.831L25.9746 26.7519L23.9242 29.5706L23.9263 26.0851L20.6119 25.0059L23.9275 23.9309L23.9297 20.4451Z" fill="#F0F0F0"/>
<path d="M18.3425 32.0594C14.4482 32.0594 11.2911 28.9023 11.2911 25.0079C11.2911 21.1136 14.4482 17.9565 18.3425 17.9565C19.5568 17.9565 20.6993 18.2636 21.6967 18.804C20.1319 17.2736 17.9918 16.3292 15.6304 16.3292C10.8373 16.3292 6.95177 20.2147 6.95177 25.0078C6.95177 29.8009 10.8373 33.6865 15.6304 33.6865C17.992 33.6865 20.132 32.7419 21.6967 31.2116C20.6993 31.7523 19.5568 32.0594 18.3425 32.0594Z" fill="#F0F0F0"/>
</g>
<defs>
<clipPath id="clip0_1_169">
<rect width="49.9025" height="50" fill="white"/>
</clipPath>
</defs>
</svg>
