<svg width="50" height="50" viewBox="0 0 50 50" fill="none" xmlns="http://www.w3.org/2000/svg">
<g clip-path="url(#clip0_1_77)">
<path d="M25 50C38.8071 50 50 38.8071 50 25C50 11.1929 38.8071 0 25 0C11.1929 0 0 11.1929 0 25C0 38.8071 11.1929 50 25 50Z" fill="#F0F0F0"/>
<path d="M34.4133 19.5652H28.1377L25 14.1305L21.8624 19.5652H15.5866L18.7247 25L15.5866 30.4348H21.8624L25 35.8695L28.1377 30.4348H34.4133L31.2752 25L34.4133 19.5652ZM28.8549 25L26.9276 28.3387H23.0726L21.145 25L23.0725 21.6613H26.9275L28.8549 25ZM25 18.3226L25.7173 19.5651H24.2828L25 18.3226ZM19.2174 21.6613H20.6521L19.9347 22.9039L19.2174 21.6613ZM19.2174 28.3387L19.9348 27.0961L20.6522 28.3387H19.2174ZM25 31.6773L24.2827 30.4348H25.7173L25 31.6773ZM30.7826 28.3387H29.3478L30.0653 27.0961L30.7826 28.3387ZM29.3478 21.6613H30.7826L30.0652 22.9039L29.3478 21.6613Z" fill="#0052B4"/>
<path d="M40.5622 5.43475H9.43783C7.15629 7.25194 5.19965 9.45917 3.66937 11.9565H46.3307C44.8003 9.45927 42.8436 7.25194 40.5622 5.43475Z" fill="#0052B4"/>
<path d="M9.43784 44.5653H40.5622C42.8437 42.7481 44.8004 40.5409 46.3307 38.0435H3.66937C5.19975 40.5408 7.15639 42.7481 9.43784 44.5653Z" fill="#0052B4"/>
</g>
<defs>
<clipPath id="clip0_1_77">
<rect width="50" height="50" fill="white"/>
</clipPath>
</defs>
</svg>
