<svg width="50" height="50" viewBox="0 0 50 50" fill="none" xmlns="http://www.w3.org/2000/svg">
<g clip-path="url(#clip0_1_97)">
<path d="M25 49.9999C38.8071 49.9999 50 38.807 50 24.9999C50 11.1928 38.8071 -0.000106812 25 -0.000106812C11.1929 -0.000106812 0 11.1928 0 24.9999C0 38.807 11.1929 49.9999 25 49.9999Z" fill="#F0F0F0"/>
<path d="M33.6956 25C33.6956 27.1739 29.8024 32.6087 25 32.6087C20.1975 32.6087 16.3044 27.1739 16.3044 25C16.3044 20.1974 20.1975 16.3043 25 16.3043C29.8024 16.3043 33.6956 20.1974 33.6956 25Z" fill="#D80027"/>
<path d="M33.6956 24.9999C33.6956 29.8024 29.8024 33.6955 25 33.6955C20.1975 33.6955 16.3044 29.8024 16.3044 24.9999" fill="#0052B4"/>
<path d="M34.2163 32.6863L36.5217 30.3809L38.0586 31.9179L35.7532 34.2232L34.2163 32.6863Z" fill="black"/>
<path d="M30.3728 36.5286L32.6783 34.2233L34.2152 35.7602L31.9098 38.0657L30.3728 36.5286Z" fill="black"/>
<path d="M38.8275 37.2969L41.1329 34.9914L42.6698 36.5284L40.3645 38.8338L38.8275 37.2969Z" fill="black"/>
<path d="M34.9841 41.1398L37.2895 38.8345L38.8265 40.3714L36.521 42.6769L34.9841 41.1398Z" fill="black"/>
<path d="M36.5217 34.9918L38.8271 32.6864L40.3641 34.2234L38.0586 36.5288L36.5217 34.9918Z" fill="black"/>
<path d="M32.6793 38.8341L34.9847 36.5287L36.5216 38.0657L34.2163 40.3711L32.6793 38.8341Z" fill="black"/>
<path d="M38.8375 17.3178L32.6898 11.1701L34.2267 9.63307L40.3745 15.7809L38.8375 17.3178Z" fill="black"/>
<path d="M32.6887 15.7814L30.3833 13.4761L31.9202 11.9391L34.2256 14.2445L32.6887 15.7814Z" fill="black"/>
<path d="M36.5312 19.6248L34.2257 17.3194L35.7626 15.7825L38.068 18.0879L36.5312 19.6248Z" fill="black"/>
<path d="M37.2991 11.1699L34.9938 8.86443L36.5307 7.32745L38.8362 9.63288L37.2991 11.1699Z" fill="black"/>
<path d="M41.1436 15.0136L38.8382 12.7082L40.3751 11.1712L42.6806 13.4766L41.1436 15.0136Z" fill="black"/>
<path d="M8.86277 34.9875L15.0106 41.1352L13.4736 42.6723L7.32581 36.5244L8.86277 34.9875Z" fill="black"/>
<path d="M15.0102 36.5231L17.3156 38.8285L15.7787 40.3654L13.4733 38.06L15.0102 36.5231Z" fill="black"/>
<path d="M11.1675 32.6815L13.4728 34.9869L11.9359 36.5238L9.63049 34.2185L11.1675 32.6815Z" fill="black"/>
<path d="M13.4731 30.3754L19.621 36.5232L18.084 38.0601L11.9362 31.9124L13.4731 30.3754Z" fill="black"/>
<path d="M15.0099 8.85963L8.86211 15.0074L7.32513 13.4704L13.473 7.32266L15.0099 8.85963Z" fill="black"/>
<path d="M17.3154 11.1648L11.1676 17.3126L9.63062 15.7756L15.7785 9.62782L17.3154 11.1648Z" fill="black"/>
<path d="M19.6228 13.4716L13.4751 19.6194L11.9382 18.0825L18.086 11.9348L19.6228 13.4716Z" fill="black"/>
</g>
<defs>
<clipPath id="clip0_1_97">
<rect width="50" height="50" fill="white"/>
</clipPath>
</defs>
</svg>
