<svg width="50" height="50" viewBox="0 0 50 50" fill="none" xmlns="http://www.w3.org/2000/svg">
<g clip-path="url(#clip0_1_68)">
<path d="M0 25C0 28.058 0.550098 30.9873 1.55498 33.6956L25 35.8696L48.4451 33.6956C49.45 30.9873 50.0001 28.058 50.0001 25C50.0001 21.942 49.45 19.0127 48.4451 16.3044L25 14.1305L1.55498 16.3044C0.550098 19.0127 0 21.942 0 25Z" fill="#FFDA44"/>
<path d="M48.445 16.3044C44.9127 6.78448 35.7491 0 25 0C14.2508 0 5.08726 6.78448 1.55493 16.3044H48.445Z" fill="#D80027"/>
<path d="M1.55493 33.6956C5.08726 43.2155 14.2508 50 25 50C35.7491 50 44.9127 43.2155 48.445 33.6956H1.55493Z" fill="#D80027"/>
</g>
<defs>
<clipPath id="clip0_1_68">
<rect width="50" height="50" fill="white"/>
</clipPath>
</defs>
</svg>
