<svg width="50" height="50" viewBox="0 0 50 50" fill="none" xmlns="http://www.w3.org/2000/svg">
<g clip-path="url(#clip0_1_125)">
<path d="M25 50C38.8071 50 50 38.8071 50 25C50 11.1929 38.8071 0 25 0C11.1929 0 0 11.1929 0 25C0 38.8071 11.1929 50 25 50Z" fill="#F0F0F0"/>
<path d="M0.861206 31.5218C2.30769 36.8889 5.49568 41.5407 9.78259 44.8345V31.5218H0.861206Z" fill="#D80027"/>
<path d="M22.826 49.9049C23.5427 49.9666 24.2674 50 25 50C36.5507 50 46.27 42.1659 49.1387 31.5218H22.826V49.9049Z" fill="#D80027"/>
<path d="M49.1387 18.4782C46.27 7.83407 36.5507 0 25 0C24.2674 0 23.5427 0.0333984 22.826 0.0951171V18.4782H49.1387Z" fill="#D80027"/>
<path d="M9.78259 5.16553C5.49568 8.45948 2.30769 13.1111 0.861206 18.4782H9.78259V5.16553Z" fill="#D80027"/>
<path d="M49.7884 21.7392H19.5653H19.5652V0.594238C17.2549 1.10655 15.0646 1.93692 13.0435 3.03975V21.739V21.7391H0.211621C0.0724609 22.8066 0 23.8948 0 25C0 26.1052 0.0724609 27.1935 0.211621 28.2609H13.0434H13.0435V46.9602C15.0646 48.0629 17.2549 48.8935 19.5652 49.4057V28.2611V28.2609H49.7884C49.9273 27.1935 50 26.1052 50 25C50 23.8948 49.9273 22.8066 49.7884 21.7392Z" fill="#0052B4"/>
</g>
<defs>
<clipPath id="clip0_1_125">
<rect width="50" height="50" fill="white"/>
</clipPath>
</defs>
</svg>
