<svg width="50" height="50" viewBox="0 0 50 50" fill="none" xmlns="http://www.w3.org/2000/svg">
<g clip-path="url(#clip0_1_163)">
<path d="M25 50.0001C38.8071 50.0001 49.9999 38.8072 49.9999 25.0001C49.9999 11.193 38.8071 0.00012207 25 0.00012207C11.1929 0.00012207 0 11.193 0 25.0001C0 38.8072 11.1929 50.0001 25 50.0001Z" fill="#F0F0F0"/>
<path d="M48.445 16.3044H1.55498C0.549999 19.0127 0 21.942 0 25C0 28.058 0.549999 30.9873 1.55498 33.6956H48.4451C49.4499 30.9873 49.9999 28.058 49.9999 25C49.9999 21.942 49.4499 19.0127 48.445 16.3044Z" fill="#0052B4"/>
<path d="M24.9999 0.00012207C17.4227 0.00012207 10.6334 3.3716 6.04871 8.69572H43.951C39.3665 3.3716 32.5772 0.00012207 24.9999 0.00012207Z" fill="#D80027"/>
<path d="M43.9512 41.3046H6.04871C10.6334 46.6287 17.4227 50.0002 24.9999 50.0002C32.5772 50.0002 39.3665 46.6287 43.9512 41.3046Z" fill="#D80027"/>
</g>
<defs>
<clipPath id="clip0_1_163">
<rect width="50" height="50" fill="white"/>
</clipPath>
</defs>
</svg>
