<svg width="51" height="50" viewBox="0 0 51 50" fill="none" xmlns="http://www.w3.org/2000/svg">
<g clip-path="url(#clip0_1_120)">
<path d="M25.0893 49.9856C38.8924 49.9856 50.0821 38.7959 50.0821 24.9928C50.0821 11.1896 38.8924 0 25.0893 0C11.2862 0 0.0965576 11.1896 0.0965576 24.9928C0.0965576 38.7959 11.2862 49.9856 25.0893 49.9856Z" fill="#F0F0F0"/>
<path d="M25.0892 0C14.3432 0 5.1823 6.7824 1.651 16.2997H48.5275C44.9961 6.7824 35.8352 0 25.0892 0Z" fill="#A2001D"/>
<path d="M25.0892 49.9854C35.8352 49.9854 44.9961 43.203 48.5274 33.6858H1.651C5.1823 43.203 14.3432 49.9854 25.0892 49.9854Z" fill="#0052B4"/>
</g>
<defs>
<clipPath id="clip0_1_120">
<rect width="50.0976" height="50" fill="white"/>
</clipPath>
</defs>
</svg>
