<svg width="50" height="50" viewBox="0 0 50 50" fill="none" xmlns="http://www.w3.org/2000/svg">
<g clip-path="url(#clip0_1_174)">
<path d="M25 49.9998C38.8071 49.9998 50 38.807 50 24.9999C50 11.1927 38.8071 -0.00012207 25 -0.00012207C11.1929 -0.00012207 0 11.1927 0 24.9999C0 38.807 11.1929 49.9998 25 49.9998Z" fill="#F0F0F0"/>
<path d="M23.9131 24.9999H50C50 22.7434 49.6992 20.5575 49.1387 18.4781H23.9131V24.9999Z" fill="#D80027"/>
<path d="M23.9131 11.9564H46.3307C44.8003 9.45914 42.8436 7.25182 40.5621 5.43463H23.9131V11.9564Z" fill="#D80027"/>
<path d="M24.9999 49.9999C30.8836 49.9999 36.2915 47.9663 40.562 44.5651H9.43787C13.7084 47.9663 19.1162 49.9999 24.9999 49.9999Z" fill="#D80027"/>
<path d="M3.66931 38.0433H46.3306C47.5593 36.0385 48.5121 33.8471 49.1387 31.5215H0.861206C1.48787 33.8471 2.4407 36.0385 3.66931 38.0433Z" fill="#D80027"/>
<path d="M11.5805 3.90397H13.8587L11.7395 5.44352L12.549 7.93464L10.43 6.39509L8.31093 7.93464L9.01015 5.78259C7.14433 7.33678 5.50898 9.15768 4.16132 11.1866H4.89131L3.54238 12.1666C3.33222 12.5172 3.13066 12.8733 2.9375 13.2347L3.58164 15.2172L2.37988 14.3441C2.08115 14.977 1.80791 15.6242 1.5623 16.2848L2.27197 18.4692H4.89131L2.77217 20.0087L3.58164 22.4999L1.4626 20.9603L0.193262 21.8826C0.0662109 22.9039 0 23.9441 0 24.9999H25C25 11.1928 25 9.5651 25 -0.00012207C20.0613 -0.00012207 15.4575 1.43249 11.5805 3.90397ZM12.549 22.4999L10.43 20.9603L8.31093 22.4999L9.1204 20.0087L7.00126 18.4692H9.6206L10.43 15.9781L11.2393 18.4692H13.8587L11.7395 20.0087L12.549 22.4999ZM11.7395 12.7261L12.549 15.2172L10.43 13.6777L8.31093 15.2172L9.1204 12.7261L7.00126 11.1866H9.6206L10.43 8.69547L11.2393 11.1866H13.8587L11.7395 12.7261ZM21.5164 22.4999L19.3973 20.9603L17.2783 22.4999L18.0878 20.0087L15.9686 18.4692H18.588L19.3973 15.9781L20.2067 18.4692H22.8261L20.7069 20.0087L21.5164 22.4999ZM20.7069 12.7261L21.5164 15.2172L19.3973 13.6777L17.2783 15.2172L18.0878 12.7261L15.9686 11.1866H18.588L19.3973 8.69547L20.2067 11.1866H22.8261L20.7069 12.7261ZM20.7069 5.44352L21.5164 7.93464L19.3973 6.39509L17.2783 7.93464L18.0878 5.44352L15.9686 3.90397H18.588L19.3973 1.41286L20.2067 3.90397H22.8261L20.7069 5.44352Z" fill="#0052B4"/>
</g>
<defs>
<clipPath id="clip0_1_174">
<rect width="50" height="50" fill="white"/>
</clipPath>
</defs>
</svg>
